<?xml version="1.0" encoding="utf-8"?>
<!-- Generator: Adobe Illustrator 15.0.0, SVG Export Plug-In  -->
<!DOCTYPE svg PUBLIC "-//W3C//DTD SVG 1.1//EN" "http://www.w3.org/Graphics/SVG/1.1/DTD/svg11.dtd" [
	<!ENTITY ns_flows "http://ns.adobe.com/Flows/1.0/">
]>
<svg version="1.1"
	 xmlns="http://www.w3.org/2000/svg" xmlns:xlink="http://www.w3.org/1999/xlink" xmlns:a="http://ns.adobe.com/AdobeSVGViewerExtensions/3.0/"
	 x="0px" y="0px" width="256px" height="256px" viewBox="-25.092 -26.487 256 256" enable-background="new -25.092 -26.487 256 256"
	 xml:space="preserve">
<defs>
</defs>
<path fill="#757074" d="M211.425,130.778c1.959-4.548,2.119-8.666,0.484-12.263c-0.636-1.403-1.558-2.712-2.727-3.882
	c-1.966-1.965-4.273-3.195-5.94-3.899c1.28-4.423,0.951-8.286-0.972-11.499c-0.527-0.883-1.19-1.711-1.948-2.486
	c-5.146-5.265-9.037-3.913-9.037-3.913s2.103-8.397-3.983-14.35c-6.085-5.954-11.873-3.41-16.894,1.692l-25.306,25.295
	c-3.575-1.342-9.201-4.724-14.994-4.059c-10.318,1.185-13.008,8.084-14.463,13.859c-3.293,13.047-2.314,32.501-6.041,40.018
	c-4.584,9.242-13.561,17.004-13.561,17.004l35.199,35.198c14.331-14.33,28.119-18.043,38.408-22.347
	c23.315-9.755,34.759-21.432,40.582-27.703C222.302,144.442,213.122,133.154,211.425,130.778z"/>
<path fill="#757074" d="M125.149,27.542l22.693-6.197c-1.242-2.853-2.856-5.552-4.798-8.021c-5.438-6.909-13.2-11.625-21.857-13.276
	c-0.928-0.177-1.884,0.142-2.52,0.844c-0.636,0.7-0.86,1.683-0.594,2.59L125.149,27.542z"/>
<path fill="#757074" d="M120.51,74.151l18.636,23.678l24.896-23.08L147.098,53.22c2.859-5.809,4.239-12.276,4.003-18.813
	c-0.031-0.833-0.441-1.604-1.116-2.097c-0.674-0.49-1.537-0.645-2.338-0.417L101.49,44.969L88.135,9.678
	c-0.33-0.873-1.084-1.514-1.997-1.7c-0.915-0.185-1.858,0.109-2.502,0.781c-13.443,14.03-14.523,36.117-2.514,51.378
	c7.481,9.505,18.72,14.958,30.831,14.958C114.837,75.096,117.708,74.778,120.51,74.151z"/>
<path fill="#757074" d="M86.441,119.433l-5.858-3.384c0.395-2.151,0.629-4.351,0.629-6.61c0-2.261-0.234-4.453-0.629-6.606
	l5.853-3.378c1.247-0.717,2.152-1.902,2.526-3.291c0.374-1.387,0.177-2.867-0.542-4.11l-6.86-11.886
	c-1.496-2.593-4.812-3.481-7.405-1.985l-5.838,3.373c-3.356-2.848-7.233-5.094-11.463-6.605v-6.763c0-2.993-2.423-5.419-5.417-5.419
	H37.71c-2.988,0-5.421,2.426-5.421,5.419v6.763c-4.23,1.512-8.097,3.758-11.454,6.605l-5.847-3.373
	c-2.593-1.496-5.904-0.607-7.4,1.985L0.727,92.048c-1.496,2.593-0.607,5.905,1.981,7.401l5.853,3.383
	c-0.385,2.152-0.624,4.346-0.624,6.606c0,2.26,0.239,4.464,0.624,6.617l-5.853,3.383c-2.588,1.496-3.477,4.807-1.981,7.4
	l6.855,11.881c0.724,1.243,1.903,2.151,3.295,2.526c1.388,0.368,2.87,0.177,4.111-0.546l5.858-3.379
	c3.347,2.849,7.218,5.094,11.444,6.601v6.763c0,2.992,2.433,5.421,5.421,5.421h13.726c2.994,0,5.417-2.429,5.417-5.421v-6.763
	c4.23-1.507,8.107-3.752,11.454-6.601l5.852,3.38c2.589,1.496,5.905,0.607,7.401-1.981l6.86-11.881
	C89.917,124.245,89.035,120.93,86.441,119.433z M44.577,132.488c-12.708,0-23.045-10.343-23.045-23.05s10.336-23.051,23.045-23.051
	c12.712,0,23.05,10.344,23.05,23.051S57.289,132.488,44.577,132.488z"/>
<path fill="#757074" d="M44.577,91.71c-9.771,0-17.723,7.952-17.723,17.729c0,9.775,7.952,17.727,17.723,17.727
	c9.775,0,17.728-7.951,17.728-17.727C62.305,99.662,54.353,91.71,44.577,91.71z"/>
</svg>
