<?xml version="1.0" encoding="utf-8"?>
<!-- Generator: Adobe Illustrator 15.0.0, SVG Export Plug-In  -->
<!DOCTYPE svg PUBLIC "-//W3C//DTD SVG 1.1//EN" "http://www.w3.org/Graphics/SVG/1.1/DTD/svg11.dtd" [
	<!ENTITY ns_flows "http://ns.adobe.com/Flows/1.0/">
]>
<svg version="1.1"
	 xmlns="http://www.w3.org/2000/svg" xmlns:xlink="http://www.w3.org/1999/xlink" xmlns:a="http://ns.adobe.com/AdobeSVGViewerExtensions/3.0/"
	 x="0px" y="0px" width="256px" height="256px" viewBox="-20 -40.75 256 256" enable-background="new -20 -40.75 256 256"
	 xml:space="preserve">
<defs>
</defs>
<path fill="#757074" d="M14.595,18.375c2.707-1.583,4.53-4.513,4.53-7.875c0-5.04-4.085-9.125-9.125-9.125S0.875,5.46,0.875,10.5
	c0,3.362,1.823,6.291,4.53,7.875C2.196,20.039,0,23.385,0,27.25v18h20v-18C20,23.385,17.804,20.039,14.595,18.375z"/>
<rect x="12.91" y="57.489" transform="matrix(0.6621 0.7494 -0.7494 0.6621 60.5923 -15.4169)" fill="#757074" width="68.966" height="4"/>
<rect x="117.729" y="85.113" transform="matrix(0.8917 0.4527 -0.4527 0.8917 55.7478 -58.718)" fill="#757074" width="65.644" height="4"/>
<circle fill="#757074" cx="77.698" cy="93.839" r="6.227"/>
<circle fill="#757074" cx="111.322" cy="67.687" r="6.227"/>
<rect x="92.51" y="70.887" transform="matrix(0.669 0.7432 -0.7432 0.669 91.2311 -43.547)" fill="#757074" width="4" height="19.546"/>
<rect x="62.829" y="102.903" transform="matrix(0.951 0.309 -0.309 0.951 43.2825 -13.6818)" fill="#757074" width="4.001" height="53.764"/>
<path fill="#757074" d="M224,129.54c0,3.438-2.969,6.71-6.409,6.71h-26.151c-3.44,0-6.439-3.271-6.439-6.71V89.689l8.93-8.439
	h23.661c3.44,0,6.409,2.509,6.409,5.948V129.54z"/>
<path fill-rule="evenodd" clip-rule="evenodd" fill="#757074" d="M68.785,186.238c-5.291,2.957-11.344,5.152-16.93,7.813
	c-3.442-0.898-6.282-2.4-9.117-3.906c-3.105-1.093-6.07-2.322-8.682-3.907c0.289-6.08-0.578-13.31,0.434-18.666
	c0.067-1.813,2.133-1.63,3.473-2.17c0.899-0.982,2.406-1.357,3.907-1.736c2.308-1.455,4.938-2.588,7.814-3.474
	c0.318-0.406,0.79-0.658,1.303-0.869c3.478,0.863,6.36,2.322,9.116,3.907c2.977,1.074,6.113,1.991,8.248,3.907
	C69.345,172.654,68.508,180.003,68.785,186.238z M57.064,165.402c-2.108-0.497-3.253-1.957-5.644-2.172c-0.29,0-0.579,0-0.869,0
	c-1.717,0.743-2.986,1.934-5.209,2.172c-0.873,1.587-4.162,0.757-4.341,3.038c3.768,1.295,6.58,3.548,10.853,4.341
	c3.469-1.305,6.627-2.922,9.983-4.341C61.454,166.22,58.367,166.701,57.064,165.402z M37.529,184.067
	c3.896,1.892,7.659,3.917,12.154,5.209c0-4.341,0-8.682,0-13.023c-3.883-1.903-7.612-3.962-12.154-5.207
	C37.529,175.385,37.529,179.727,37.529,184.067z"/>
<path fill="#757074" d="M162.768,47.459c-16.809,0-32.63-8.226-42.323-22.003l-1.214-1.726l1.214-1.726
	C130.138,8.226,145.959,0,162.768,0s32.63,8.226,42.323,22.003l1.214,1.726l-1.214,1.726
	C195.397,39.233,179.576,47.459,162.768,47.459z M126.628,23.729c8.645,11.141,21.997,17.729,36.14,17.729
	s27.495-6.589,36.14-17.729C190.263,12.589,176.91,6,162.768,6S135.272,12.589,126.628,23.729z"/>
<path fill="#757074" d="M175.421,17.872c-0.004,3.235-2.627,5.857-5.864,5.857c-3.238,0-5.863-2.626-5.863-5.864
	c0-3.239,2.625-5.865,5.863-5.865c0.69,0,1.342,0.141,1.956,0.358c-2.6-2.299-6.007-3.706-9.75-3.706
	c-8.138,0-14.733,6.597-14.733,14.734c0,8.138,6.596,14.734,14.733,14.734c8.14,0,14.735-6.597,14.735-14.734
	C176.498,21.436,176.108,19.577,175.421,17.872z"/>
</svg>
