<?xml version="1.0" encoding="utf-8"?>
<!-- Generator: Adobe Illustrator 15.0.0, SVG Export Plug-In  -->
<!DOCTYPE svg PUBLIC "-//W3C//DTD SVG 1.1//EN" "http://www.w3.org/Graphics/SVG/1.1/DTD/svg11.dtd" [
	<!ENTITY ns_flows "http://ns.adobe.com/Flows/1.0/">
]>
<svg version="1.1"
	 xmlns="http://www.w3.org/2000/svg" xmlns:xlink="http://www.w3.org/1999/xlink" xmlns:a="http://ns.adobe.com/AdobeSVGViewerExtensions/3.0/"
	 x="0px" y="0px" width="256px" height="256px" viewBox="0.075 -0.334 256 256" enable-background="new 0.075 -0.334 256 256"
	 xml:space="preserve">
<defs>
</defs>
<path fill="#FFFFFF" d="M128.15,0C60.711,0,5.455,52.155,0.512,118.332C0.316,118.383,0.14,118.43,0,118.467L0.406,120
	c-0.163,2.646-0.256,5.313-0.256,8c0,70.692,57.308,128,128,128s128-57.308,128-128S198.843,0,128.15,0z M211.589,211.438
	C189.302,233.726,159.669,246,128.15,246s-61.151-12.274-83.438-34.562S10.15,159.519,10.15,128c0-1.282,0.027-2.56,0.068-3.835
	c4.656-1.09,9.058-1.999,10.595-1.999c3.129,0,4.262,0,4.262,6.258v46.395c0,15.67,11.439,28.418,25.5,28.418
	s25.5-12.748,25.5-28.418v-5.093c5-0.253,9.807-1.438,13.652-3.562c4.363-2.41,7.671-5.92,9.947-10.532
	c2.276-4.61,3.4-10.16,3.4-16.65V94.666h9.075c2.762,0,5-2.238,5-5s-2.238-5-5-5h-75c-2.762,0-5,2.238-5,5s2.238,5,5,5h7.925v44.315
	c0,6.49,1.082,12.04,3.359,16.65c2.277,4.612,5.521,8.122,9.868,10.532c2.889,1.602,5.772,2.658,9.772,3.195v5.459
	c0,11.259-7.851,20.418-17.5,20.418s-17.5-9.159-17.5-20.418v-46.395c0-3.899,0.037-14.258-12.262-14.258
	c-2.039,0-6.049,0.766-10.061,1.659c2.741-26.918,14.558-51.872,33.949-71.264C66.989,22.274,96.627,10,128.146,10
	s61.154,12.274,83.441,34.562c21.025,21.025,33.136,48.589,34.44,78.104h-29.952v-6.754c0-6.261-1.369-11.611-3.838-16.052
	c-2.467-4.44-6.121-7.611-10.828-9.928c-4.705-2.316-10.447-3.267-17.09-3.267h-14.244v-8h-12v27H129.15c-1.657,0-3,1.343-3,3
	s1.343,3,3,3h28.925v32H129.15c-1.657,0-3,1.343-3,3s1.343,3,3,3h28.925v27h12v-8h14.188c6.642,0,12.324-0.976,17.049-3.292
	c4.726-2.316,8.458-5.604,10.925-10.043c2.469-4.44,3.838-9.701,3.838-15.963v-7.702h30.013
	C245.174,161.811,233.01,190.018,211.589,211.438z M56.075,94.666h35v44.714c0,6.035-1.301,10.703-4.355,14.005
	c-3.057,3.302-7.259,4.952-12.837,4.952c-5.541,0-10.021-1.65-13.059-4.952s-4.749-7.97-4.749-14.005V94.666z M170.075,97.666
	h14.587c6.11,0,10.929,1.4,14.288,4.57c3.359,3.168,5.125,7.454,5.125,13.221v24.367c0,5.767-1.766,10.078-5.125,13.246
	c-3.359,3.17-8.178,4.596-14.288,4.596h-14.587V97.666z"/>
</svg>
