<?xml version="1.0" encoding="utf-8"?>
<!-- Generator: Adobe Illustrator 15.0.0, SVG Export Plug-In  -->
<!DOCTYPE svg PUBLIC "-//W3C//DTD SVG 1.1//EN" "http://www.w3.org/Graphics/SVG/1.1/DTD/svg11.dtd" [
	<!ENTITY ns_flows "http://ns.adobe.com/Flows/1.0/">
]>
<svg version="1.1"
	 xmlns="http://www.w3.org/2000/svg" xmlns:xlink="http://www.w3.org/1999/xlink" xmlns:a="http://ns.adobe.com/AdobeSVGViewerExtensions/3.0/"
	 x="0px" y="0px" width="256px" height="256px" viewBox="-11 -12 256 256" enable-background="new -11 -12 256 256"
	 xml:space="preserve">
<defs>
</defs>
<path fill="#757074" d="M236.024,205.726l-24.749-24.749c-1.667-1.667-4.369-1.667-6.037,0l-0.889,0.889l-6.32-6.32
	C204.89,166.857,209,155.903,209,144c0-28.122-22.878-51-51-51s-51,22.878-51,51c0,28.121,22.878,51,51,51
	c11.903,0,22.857-4.11,31.544-10.971l6.32,6.32l-0.889,0.889c-1.667,1.667-1.667,4.369,0,6.036l24.75,24.749
	c1.667,1.667,4.369,1.667,6.036,0l10.262-10.262C237.691,210.095,237.691,207.393,236.024,205.726z M158,183
	c-21.505,0-39-17.495-39-39s17.495-39,39-39s39,17.495,39,39S179.505,183,158,183z"/>
<path fill="#757074" d="M170,215.5c0,2.206-1.294,4.5-3.5,4.5h-150c-2.206,0-4.5-2.294-4.5-4.5v-200c0-2.206,2.294-3.5,4.5-3.5
	h103.08c0.86,0,1.42-0.371,2.42-0.137V44.09c0,8.895,7.864,16.91,16.58,16.91h31.786c0.079,0-0.366,0.607-0.366,1.09v19.558
	c4.159,0.796,8.172,1.996,12,3.56V62.09c0-2.945-0.388-6.273-1.583-9.589c-1.628-4.608-4.067-8.874-6.915-11.709L140.839,8.296
	c-2.436-2.423-5.917-4.404-9.869-6.036C127.03,0.642,123.006,0,119.58,0H16.5C7.678,0,0,6.678,0,15.5v200
	c0,8.822,7.678,16.5,16.5,16.5h150c8.822,0,15.5-7.678,15.5-16.5v-12.707c-3.828,1.563-7.841,2.764-12,3.56V215.5z"/>
<path fill="#757074" d="M63,126h33c2.761,0,5-2.238,5-5s-2.239-5-5-5H63c-2.761,0-5,2.238-5,5S60.239,126,63,126z"/>
<path fill="#757074" d="M63,76h33c2.761,0,5-2.238,5-5s-2.239-5-5-5H63c-2.761,0-5,2.238-5,5S60.239,76,63,76z"/>
<path fill="#757074" d="M93,160H63c-2.761,0-5,2.238-5,5s2.239,5,5,5h30c2.283,0,4.187-1.539,4.786-3.629
	c-0.794-1.821-1.503-3.687-2.127-5.592C94.887,160.292,93.979,160,93,160z"/>
<path fill="#757074" d="M63,84c-2.761,0-5,2.239-5,5s2.239,5,5,5h55.881c5.462-4.28,11.64-7.683,18.329-10H63z"/>
<circle fill="#757074" cx="36" cy="79.5" r="12"/>
<circle fill="#757074" cx="36" cy="124.5" r="12"/>
<circle fill="#757074" cx="36" cy="169.5" r="12"/>
<g>
	<defs>
		<circle id="SVGID_2_" cx="158" cy="144" r="35.727"/>
	</defs>
	<clipPath id="SVGID_3_">
		<use xlink:href="#SVGID_2_"  overflow="visible"/>
	</clipPath>
	<path clip-path="url(#SVGID_3_)" fill="#C42222" d="M179,135c0,2.762-2.239,5-5,5h-52c-2.761,0-5-2.238-5-5v-18
		c0-2.761,2.239-5,5-5h52c2.761,0,5,2.239,5,5V135z"/>
	<path clip-path="url(#SVGID_3_)" fill="#757074" d="M182,182c0,2.762-2.239,5-5,5h-52c-2.761,0-5-2.238-5-5v-18
		c0-2.762,2.239-5,5-5h52c2.761,0,5,2.238,5,5V182z"/>
</g>
</svg>
